<svg width="901" height="688" viewBox="0 0 901 688" fill="none" xmlns="http://www.w3.org/2000/svg">
<g filter="url(#filter0_i_48_4578)">
<mask id="path-1-inside-1_48_4578" fill="white">
<path fill-rule="evenodd" clip-rule="evenodd" d="M2.39995 41.4087C2.37961 41.824 2.03875 42.1597 1.62288 42.1597V42.1597C1.41524 42.1502 1.21224 42.2231 1.05808 42.3625C0.903917 42.502 0.811077 42.6967 0.799776 42.9043L0.799778 79.8675C0.811079 80.0751 0.903919 80.2698 1.05808 80.4092C1.21225 80.5486 1.41525 80.6216 1.62288 80.612V80.612C2.01485 80.612 2.3326 80.9297 2.3326 81.3217L2.33262 645.319C2.33232 672.31 20.9561 687.951 44.9377 687.951L858.197 687.938C882.179 687.938 900.801 672.297 900.801 645.306L900.801 44.1748C900.801 17.1862 882.179 1.54433 858.197 1.54434L135.935 1.55534C135.535 1.55535 135.21 1.23093 135.21 0.830744V0.830744C135.22 0.621454 135.147 0.416559 135.007 0.260919C134.867 0.10528 134.671 0.0115298 134.461 5.51926e-05L103.977 5.65251e-05C103.768 0.0114701 103.572 0.10522 103.432 0.26086C103.291 0.416499 103.218 0.621394 103.228 0.830745V0.830745C103.228 1.23121 102.904 1.55585 102.503 1.55585L97.4849 1.5559C97.0844 1.5559 96.7598 1.23124 96.7598 0.830745V0.830745C96.77 0.621456 96.697 0.416561 96.5567 0.260921C96.4164 0.105281 96.2203 0.0115315 96.0111 5.68733e-05L65.5271 5.82058e-05C65.3178 0.0114718 65.1216 0.105222 64.9813 0.260861C64.8409 0.416501 64.7679 0.621396 64.7781 0.830747V0.830747C64.7781 1.23151 64.4532 1.5564 64.0525 1.5564L44.9377 1.5567C21.7925 1.5567 3.63773 16.1269 2.39995 41.4087Z"/>
</mask>
<g filter="url(#filter1_i_48_4578)">
<path fill-rule="evenodd" clip-rule="evenodd" d="M2.39995 41.4087C2.37961 41.824 2.03875 42.1597 1.62288 42.1597V42.1597C1.41524 42.1502 1.21224 42.2231 1.05808 42.3625C0.903917 42.502 0.811077 42.6967 0.799776 42.9043L0.799778 79.8675C0.811079 80.0751 0.903919 80.2698 1.05808 80.4092C1.21225 80.5486 1.41525 80.6216 1.62288 80.612V80.612C2.01485 80.612 2.3326 80.9297 2.3326 81.3217L2.33262 645.319C2.33232 672.31 20.9561 687.951 44.9377 687.951L858.197 687.938C882.179 687.938 900.801 672.297 900.801 645.306L900.801 44.1748C900.801 17.1862 882.179 1.54433 858.197 1.54434L135.935 1.55534C135.535 1.55535 135.21 1.23093 135.21 0.830744V0.830744C135.22 0.621454 135.147 0.416559 135.007 0.260919C134.867 0.10528 134.671 0.0115298 134.461 5.51926e-05L103.977 5.65251e-05C103.768 0.0114701 103.572 0.10522 103.432 0.26086C103.291 0.416499 103.218 0.621394 103.228 0.830745V0.830745C103.228 1.23121 102.904 1.55585 102.503 1.55585L97.4849 1.5559C97.0844 1.5559 96.7598 1.23124 96.7598 0.830745V0.830745C96.77 0.621456 96.697 0.416561 96.5567 0.260921C96.4164 0.105281 96.2203 0.0115315 96.0111 5.68733e-05L65.5271 5.82058e-05C65.3178 0.0114718 65.1216 0.105222 64.9813 0.260861C64.8409 0.416501 64.7679 0.621396 64.7781 0.830747V0.830747C64.7781 1.23151 64.4532 1.5564 64.0525 1.5564L44.9377 1.5567C21.7925 1.5567 3.63773 16.1269 2.39995 41.4087Z" fill="#181A22"/>
</g>
<path d="M1.05808 42.3625L1.50016 42.8512L1.50016 42.8512L1.05808 42.3625ZM0.799776 42.9043L0.141793 42.8685L0.140819 42.8864L0.140819 42.9043L0.799776 42.9043ZM0.799778 79.8675L0.140821 79.8675L0.140821 79.8854L0.141795 79.9033L0.799778 79.8675ZM1.05808 80.4092L0.616007 80.8979L0.616113 80.898L1.05808 80.4092ZM2.33262 645.319L2.99158 645.319L2.99158 645.319L2.33262 645.319ZM44.9377 687.951L44.9377 688.61L44.9377 688.61L44.9377 687.951ZM858.197 687.938L858.197 687.279L858.197 687.279L858.197 687.938ZM858.197 1.54434L858.197 0.885378L858.197 0.885378L858.197 1.54434ZM134.461 5.51926e-05L134.498 -0.657913L134.48 -0.658902L134.461 -0.658902L134.461 5.51926e-05ZM103.977 5.65251e-05L103.977 -0.6589L103.96 -0.6589L103.942 -0.657922L103.977 5.65251e-05ZM96.5567 0.260921L97.0462 -0.180242L97.0462 -0.180256L96.5567 0.260921ZM96.0111 5.68733e-05L96.0472 -0.657911L96.0291 -0.6589L96.0111 -0.6589L96.0111 5.68733e-05ZM65.5271 5.82058e-05L65.5271 -0.658899L65.5091 -0.658899L65.4912 -0.657921L65.5271 5.82058e-05ZM44.9377 1.5567L44.9377 2.21566L44.9377 2.21566L44.9377 1.5567ZM135.935 1.55534L135.935 0.896385L135.935 1.55534ZM97.4849 1.5559L97.4849 2.21485L97.4849 1.5559ZM64.0525 1.5564L64.0525 2.21536L64.0525 1.5564ZM102.503 1.55585L102.503 0.896893L102.503 1.55585ZM2.39995 41.4087L3.05812 41.4409L2.39995 41.4087ZM1.50016 42.8512C1.5254 42.8284 1.55864 42.8164 1.59269 42.818L1.65306 41.5015C1.27185 41.484 0.899093 41.6178 0.616005 41.8739L1.50016 42.8512ZM1.45776 42.9401C1.45961 42.906 1.47481 42.8741 1.50016 42.8512L0.616005 41.8739C0.333021 42.1299 0.16254 42.4873 0.141793 42.8685L1.45776 42.9401ZM1.45874 79.8675L1.45873 42.9043L0.140819 42.9043L0.140821 79.8675L1.45874 79.8675ZM1.50016 79.9206C1.47484 79.8977 1.45961 79.8657 1.45776 79.8317L0.141795 79.9033C0.162543 80.2844 0.332997 80.6419 0.616007 80.8979L1.50016 79.9206ZM1.5925 79.9537C1.55871 79.9553 1.52543 79.9434 1.50005 79.9205L0.616113 80.898C0.899059 81.1539 1.27178 81.2879 1.65326 81.2703L1.5925 79.9537ZM2.99158 645.319L2.99156 81.3217L1.67364 81.3217L1.67367 645.319L2.99158 645.319ZM44.9377 687.292C33.0897 687.292 22.6095 683.43 15.0962 676.279C7.58813 669.134 2.99143 658.656 2.99158 645.319L1.67367 645.319C1.67351 658.974 6.38854 669.812 14.1876 677.234C21.9816 684.652 32.8041 688.61 44.9377 688.61L44.9377 687.292ZM858.197 687.279L44.9377 687.292L44.9377 688.61L858.197 688.597L858.197 687.279ZM900.142 645.306C900.142 658.643 895.546 669.121 888.038 676.266C880.525 683.417 870.045 687.279 858.197 687.279L858.197 688.597C870.331 688.597 881.153 684.639 888.946 677.221C896.745 669.798 901.46 658.961 901.46 645.306L900.142 645.306ZM900.142 44.1748L900.142 645.306L901.46 645.306L901.46 44.1748L900.142 44.1748ZM858.197 2.20329C870.045 2.20329 880.525 6.0657 888.038 13.2162C895.545 20.3617 900.142 30.8394 900.142 44.1748L901.46 44.1748C901.46 30.5216 896.745 19.684 888.946 12.2615C881.153 4.84389 870.331 0.885378 858.197 0.885378L858.197 2.20329ZM135.935 2.2143L858.197 2.20329L858.197 0.885378L135.935 0.896385L135.935 2.2143ZM134.518 0.702083C134.541 0.728379 134.554 0.763103 134.552 0.798593L135.868 0.862894C135.887 0.479805 135.753 0.104739 135.497 -0.180244L134.518 0.702083ZM134.425 0.658023C134.461 0.659966 134.494 0.67583 134.518 0.702083L135.497 -0.180244C135.24 -0.465271 134.881 -0.636907 134.498 -0.657913L134.425 0.658023ZM103.977 0.659014L134.461 0.659012L134.461 -0.658902L103.977 -0.6589L103.977 0.659014ZM103.921 0.702142C103.945 0.675841 103.978 0.659968 104.013 0.658035L103.942 -0.657922C103.559 -0.637028 103.199 -0.465401 102.942 -0.180423L103.921 0.702142ZM103.887 0.798604C103.885 0.763116 103.897 0.728437 103.921 0.702142L102.942 -0.180423C102.685 0.104562 102.552 0.479672 102.57 0.862886L103.887 0.798604ZM97.4849 2.21485L102.503 2.21481L102.503 0.896893L97.4849 0.89694L97.4849 2.21485ZM96.0672 0.702085C96.0909 0.728381 96.1033 0.763097 96.1016 0.798571L97.4179 0.86292C97.4366 0.479814 97.303 0.10474 97.0462 -0.180242L96.0672 0.702085ZM95.975 0.658025C96.0104 0.659968 96.0436 0.675833 96.0672 0.702098L97.0462 -0.180256C96.7893 -0.46527 96.4301 -0.636906 96.0472 -0.657911L95.975 0.658025ZM65.5271 0.659015L96.0111 0.659014L96.0111 -0.6589L65.5271 -0.658899L65.5271 0.659015ZM65.4706 0.702144C65.4944 0.675837 65.5275 0.659969 65.563 0.658037L65.4912 -0.657921C65.1081 -0.637026 64.7488 -0.465393 64.4919 -0.180421L65.4706 0.702144ZM65.4363 0.798594C65.4345 0.763115 65.4469 0.728439 65.4706 0.702144L64.4919 -0.180421C64.2349 0.104564 64.1012 0.479678 64.1199 0.8629L65.4363 0.798594ZM44.9377 2.21566L64.0525 2.21536L64.0524 0.897448L44.9376 0.897743L44.9377 2.21566ZM3.05812 41.4409C3.66924 28.9587 8.45015 19.1669 15.8934 12.4926C23.3419 5.81365 33.5028 2.21566 44.9377 2.21566L44.9377 0.897743C33.2273 0.897743 22.7382 4.58484 15.0136 11.5114C7.28378 18.4426 2.36844 28.5768 1.74178 41.3764L3.05812 41.4409ZM135.935 0.896385C135.898 0.896386 135.869 0.866997 135.869 0.830744L134.551 0.830744C134.551 1.59487 135.171 2.21431 135.935 2.2143L135.935 0.896385ZM97.4849 0.89694C97.4483 0.89694 97.4187 0.867304 97.4187 0.830745L96.1008 0.830745C96.1008 1.59517 96.7205 2.21486 97.4849 2.21485L97.4849 0.89694ZM64.1191 0.830747C64.1191 0.867584 64.0893 0.897447 64.0524 0.897448L64.0525 2.21536C64.8172 2.21535 65.4371 1.59544 65.4371 0.830747L64.1191 0.830747ZM1.62288 81.271C1.65093 81.271 1.67364 81.2937 1.67364 81.3217L2.99156 81.3217C2.99156 80.5658 2.37876 79.953 1.62288 79.953L1.62288 81.271ZM102.57 0.830745C102.57 0.867278 102.54 0.896892 102.503 0.896893L102.503 2.21481C103.268 2.2148 103.887 1.59513 103.887 0.830745L102.57 0.830745ZM1.62288 42.8187C2.40262 42.8187 3.02121 42.1947 3.05812 41.4409L1.74178 41.3764C1.73801 41.4534 1.67489 41.5008 1.62288 41.5008L1.62288 42.8187Z" fill="#252627" mask="url(#path-1-inside-1_48_4578)"/>
<rect x="30" y="29.051" width="844" height="630" rx="14.4" fill="white"/>
</g>
<defs>
<filter id="filter0_i_48_4578" x="0.799805" y="0" width="900.001" height="688.955" filterUnits="userSpaceOnUse" color-interpolation-filters="sRGB">
<feFlood flood-opacity="0" result="BackgroundImageFix"/>
<feBlend mode="normal" in="SourceGraphic" in2="BackgroundImageFix" result="shape"/>
<feColorMatrix in="SourceAlpha" type="matrix" values="0 0 0 0 0 0 0 0 0 0 0 0 0 0 0 0 0 0 127 0" result="hardAlpha"/>
<feOffset dy="1.00374"/>
<feGaussianBlur stdDeviation="0.752807"/>
<feComposite in2="hardAlpha" operator="arithmetic" k2="-1" k3="1"/>
<feColorMatrix type="matrix" values="0 0 0 0 0.8125 0 0 0 0 0.85 0 0 0 0 1 0 0 0 0.2 0"/>
<feBlend mode="normal" in2="shape" result="effect1_innerShadow_48_4578"/>
</filter>
<filter id="filter1_i_48_4578" x="0.799805" y="0" width="900.001" height="689.103" filterUnits="userSpaceOnUse" color-interpolation-filters="sRGB">
<feFlood flood-opacity="0" result="BackgroundImageFix"/>
<feBlend mode="normal" in="SourceGraphic" in2="BackgroundImageFix" result="shape"/>
<feColorMatrix in="SourceAlpha" type="matrix" values="0 0 0 0 0 0 0 0 0 0 0 0 0 0 0 0 0 0 127 0" result="hardAlpha"/>
<feOffset dy="1.15235"/>
<feGaussianBlur stdDeviation="0.86426"/>
<feComposite in2="hardAlpha" operator="arithmetic" k2="-1" k3="1"/>
<feColorMatrix type="matrix" values="0 0 0 0 0.8125 0 0 0 0 0.85 0 0 0 0 1 0 0 0 0.2 0"/>
<feBlend mode="normal" in2="shape" result="effect1_innerShadow_48_4578"/>
</filter>
</defs>
</svg>
